<mxfile host="app.diagrams.net" agent="Mozilla/5.0 (Windows NT 10.0; Win64; x64) AppleWebKit/537.36 (KHTML, like Gecko) Chrome/137.0.0.0 Safari/537.36" version="27.1.6">
  <diagram name="페이지-1" id="98Ft6PNCYZJFJ94BmY4b">
    <mxGraphModel dx="1638" dy="794" grid="1" gridSize="10" guides="1" tooltips="1" connect="1" arrows="1" fold="1" page="1" pageScale="1" pageWidth="827" pageHeight="1169" math="0" shadow="0">
      <root>
        <mxCell id="0" />
        <mxCell id="1" parent="0" />
        <mxCell id="SEtMhd0zfTzj_LaCbf4u-45" style="edgeStyle=orthogonalEdgeStyle;rounded=0;orthogonalLoop=1;jettySize=auto;html=1;exitX=0.5;exitY=1;exitDx=0;exitDy=0;entryX=0.5;entryY=0;entryDx=0;entryDy=0;" parent="1" source="SEtMhd0zfTzj_LaCbf4u-1" target="SEtMhd0zfTzj_LaCbf4u-3" edge="1">
          <mxGeometry relative="1" as="geometry" />
        </mxCell>
        <mxCell id="SEtMhd0zfTzj_LaCbf4u-46" style="edgeStyle=orthogonalEdgeStyle;rounded=0;orthogonalLoop=1;jettySize=auto;html=1;exitX=0.5;exitY=1;exitDx=0;exitDy=0;entryX=0.5;entryY=0;entryDx=0;entryDy=0;" parent="1" source="SEtMhd0zfTzj_LaCbf4u-1" target="SEtMhd0zfTzj_LaCbf4u-4" edge="1">
          <mxGeometry relative="1" as="geometry" />
        </mxCell>
        <mxCell id="SEtMhd0zfTzj_LaCbf4u-47" style="edgeStyle=orthogonalEdgeStyle;rounded=0;orthogonalLoop=1;jettySize=auto;html=1;exitX=0.5;exitY=1;exitDx=0;exitDy=0;entryX=0.5;entryY=0;entryDx=0;entryDy=0;" parent="1" source="SEtMhd0zfTzj_LaCbf4u-1" target="SEtMhd0zfTzj_LaCbf4u-5" edge="1">
          <mxGeometry relative="1" as="geometry" />
        </mxCell>
        <mxCell id="SEtMhd0zfTzj_LaCbf4u-1" value="WayVi" style="rounded=0;whiteSpace=wrap;html=1;" parent="1" vertex="1">
          <mxGeometry x="330" y="190" width="120" height="60" as="geometry" />
        </mxCell>
        <mxCell id="SEtMhd0zfTzj_LaCbf4u-54" style="edgeStyle=orthogonalEdgeStyle;rounded=0;orthogonalLoop=1;jettySize=auto;html=1;exitX=0;exitY=0.5;exitDx=0;exitDy=0;entryX=0;entryY=0.5;entryDx=0;entryDy=0;" parent="1" source="SEtMhd0zfTzj_LaCbf4u-3" target="SEtMhd0zfTzj_LaCbf4u-9" edge="1">
          <mxGeometry relative="1" as="geometry" />
        </mxCell>
        <mxCell id="SEtMhd0zfTzj_LaCbf4u-55" style="edgeStyle=orthogonalEdgeStyle;rounded=0;orthogonalLoop=1;jettySize=auto;html=1;exitX=0;exitY=0.5;exitDx=0;exitDy=0;entryX=0;entryY=0.5;entryDx=0;entryDy=0;" parent="1" source="SEtMhd0zfTzj_LaCbf4u-3" target="SEtMhd0zfTzj_LaCbf4u-10" edge="1">
          <mxGeometry relative="1" as="geometry" />
        </mxCell>
        <mxCell id="SEtMhd0zfTzj_LaCbf4u-56" style="edgeStyle=orthogonalEdgeStyle;rounded=0;orthogonalLoop=1;jettySize=auto;html=1;exitX=0;exitY=0.5;exitDx=0;exitDy=0;entryX=0;entryY=0.5;entryDx=0;entryDy=0;" parent="1" source="SEtMhd0zfTzj_LaCbf4u-3" target="SEtMhd0zfTzj_LaCbf4u-11" edge="1">
          <mxGeometry relative="1" as="geometry" />
        </mxCell>
        <mxCell id="SEtMhd0zfTzj_LaCbf4u-3" value="Project Planning" style="rounded=0;whiteSpace=wrap;html=1;fillColor=#FFFFCC;" parent="1" vertex="1">
          <mxGeometry x="20" y="300" width="120" height="40" as="geometry" />
        </mxCell>
        <mxCell id="SEtMhd0zfTzj_LaCbf4u-63" style="edgeStyle=orthogonalEdgeStyle;rounded=0;orthogonalLoop=1;jettySize=auto;html=1;exitX=0;exitY=0.5;exitDx=0;exitDy=0;entryX=0;entryY=0.5;entryDx=0;entryDy=0;" parent="1" source="SEtMhd0zfTzj_LaCbf4u-4" target="SEtMhd0zfTzj_LaCbf4u-35" edge="1">
          <mxGeometry relative="1" as="geometry" />
        </mxCell>
        <mxCell id="SEtMhd0zfTzj_LaCbf4u-64" style="edgeStyle=orthogonalEdgeStyle;rounded=0;orthogonalLoop=1;jettySize=auto;html=1;exitX=0;exitY=0.5;exitDx=0;exitDy=0;entryX=0;entryY=0.5;entryDx=0;entryDy=0;" parent="1" source="SEtMhd0zfTzj_LaCbf4u-4" target="SEtMhd0zfTzj_LaCbf4u-36" edge="1">
          <mxGeometry relative="1" as="geometry" />
        </mxCell>
        <mxCell id="SEtMhd0zfTzj_LaCbf4u-65" style="edgeStyle=orthogonalEdgeStyle;rounded=0;orthogonalLoop=1;jettySize=auto;html=1;exitX=0;exitY=0.5;exitDx=0;exitDy=0;entryX=0;entryY=0.5;entryDx=0;entryDy=0;" parent="1" source="SEtMhd0zfTzj_LaCbf4u-4" target="SEtMhd0zfTzj_LaCbf4u-37" edge="1">
          <mxGeometry relative="1" as="geometry" />
        </mxCell>
        <mxCell id="SEtMhd0zfTzj_LaCbf4u-4" value="System Design" style="rounded=0;whiteSpace=wrap;html=1;fillColor=#FFFFCC;" parent="1" vertex="1">
          <mxGeometry x="210" y="300" width="120" height="40" as="geometry" />
        </mxCell>
        <mxCell id="SEtMhd0zfTzj_LaCbf4u-66" style="edgeStyle=orthogonalEdgeStyle;rounded=0;orthogonalLoop=1;jettySize=auto;html=1;exitX=0;exitY=0.5;exitDx=0;exitDy=0;entryX=0;entryY=0.5;entryDx=0;entryDy=0;" parent="1" source="SEtMhd0zfTzj_LaCbf4u-5" target="SEtMhd0zfTzj_LaCbf4u-12" edge="1">
          <mxGeometry relative="1" as="geometry" />
        </mxCell>
        <mxCell id="SEtMhd0zfTzj_LaCbf4u-67" style="edgeStyle=orthogonalEdgeStyle;rounded=0;orthogonalLoop=1;jettySize=auto;html=1;exitX=0;exitY=0.5;exitDx=0;exitDy=0;entryX=0;entryY=0.5;entryDx=0;entryDy=0;" parent="1" source="SEtMhd0zfTzj_LaCbf4u-5" target="SEtMhd0zfTzj_LaCbf4u-16" edge="1">
          <mxGeometry relative="1" as="geometry" />
        </mxCell>
        <mxCell id="SEtMhd0zfTzj_LaCbf4u-69" style="edgeStyle=orthogonalEdgeStyle;rounded=0;orthogonalLoop=1;jettySize=auto;html=1;exitX=0;exitY=0.5;exitDx=0;exitDy=0;entryX=0;entryY=0.5;entryDx=0;entryDy=0;" parent="1" source="SEtMhd0zfTzj_LaCbf4u-5" target="SEtMhd0zfTzj_LaCbf4u-20" edge="1">
          <mxGeometry relative="1" as="geometry">
            <Array as="points">
              <mxPoint x="380" y="320" />
              <mxPoint x="380" y="360" />
              <mxPoint x="600" y="360" />
              <mxPoint x="600" y="390" />
            </Array>
          </mxGeometry>
        </mxCell>
        <mxCell id="SEtMhd0zfTzj_LaCbf4u-70" style="edgeStyle=orthogonalEdgeStyle;rounded=0;orthogonalLoop=1;jettySize=auto;html=1;exitX=0;exitY=0.5;exitDx=0;exitDy=0;entryX=0;entryY=0.5;entryDx=0;entryDy=0;" parent="1" source="SEtMhd0zfTzj_LaCbf4u-5" target="SEtMhd0zfTzj_LaCbf4u-24" edge="1">
          <mxGeometry relative="1" as="geometry">
            <Array as="points">
              <mxPoint x="380" y="320" />
              <mxPoint x="380" y="360" />
              <mxPoint x="600" y="360" />
              <mxPoint x="600" y="555" />
            </Array>
          </mxGeometry>
        </mxCell>
        <mxCell id="SEtMhd0zfTzj_LaCbf4u-72" style="edgeStyle=orthogonalEdgeStyle;rounded=0;orthogonalLoop=1;jettySize=auto;html=1;exitX=0;exitY=0.5;exitDx=0;exitDy=0;entryX=0;entryY=0.5;entryDx=0;entryDy=0;" parent="1" source="SEtMhd0zfTzj_LaCbf4u-5" target="SEtMhd0zfTzj_LaCbf4u-28" edge="1">
          <mxGeometry relative="1" as="geometry">
            <Array as="points">
              <mxPoint x="380" y="320" />
              <mxPoint x="380" y="360" />
              <mxPoint x="600" y="360" />
              <mxPoint x="600" y="770" />
            </Array>
          </mxGeometry>
        </mxCell>
        <mxCell id="SEtMhd0zfTzj_LaCbf4u-5" value="Development" style="rounded=0;whiteSpace=wrap;html=1;fillColor=#FFFFCC;" parent="1" vertex="1">
          <mxGeometry x="400" y="300" width="120" height="40" as="geometry" />
        </mxCell>
        <mxCell id="SEtMhd0zfTzj_LaCbf4u-57" style="edgeStyle=orthogonalEdgeStyle;rounded=0;orthogonalLoop=1;jettySize=auto;html=1;exitX=0;exitY=0.5;exitDx=0;exitDy=0;entryX=0;entryY=0.5;entryDx=0;entryDy=0;" parent="1" source="SEtMhd0zfTzj_LaCbf4u-6" target="SEtMhd0zfTzj_LaCbf4u-38" edge="1">
          <mxGeometry relative="1" as="geometry" />
        </mxCell>
        <mxCell id="SEtMhd0zfTzj_LaCbf4u-58" style="edgeStyle=orthogonalEdgeStyle;rounded=0;orthogonalLoop=1;jettySize=auto;html=1;exitX=0;exitY=0.5;exitDx=0;exitDy=0;entryX=0;entryY=0.5;entryDx=0;entryDy=0;" parent="1" source="SEtMhd0zfTzj_LaCbf4u-6" target="SEtMhd0zfTzj_LaCbf4u-39" edge="1">
          <mxGeometry relative="1" as="geometry" />
        </mxCell>
        <mxCell id="SEtMhd0zfTzj_LaCbf4u-59" style="edgeStyle=orthogonalEdgeStyle;rounded=0;orthogonalLoop=1;jettySize=auto;html=1;exitX=0;exitY=0.5;exitDx=0;exitDy=0;entryX=0;entryY=0.5;entryDx=0;entryDy=0;" parent="1" source="SEtMhd0zfTzj_LaCbf4u-6" target="SEtMhd0zfTzj_LaCbf4u-40" edge="1">
          <mxGeometry relative="1" as="geometry" />
        </mxCell>
        <mxCell id="SEtMhd0zfTzj_LaCbf4u-6" value="Testing and Evaluation" style="rounded=0;whiteSpace=wrap;html=1;fillColor=#FFFFCC;" parent="1" vertex="1">
          <mxGeometry x="20" y="625" width="120" height="40" as="geometry" />
        </mxCell>
        <mxCell id="SEtMhd0zfTzj_LaCbf4u-60" style="edgeStyle=orthogonalEdgeStyle;rounded=0;orthogonalLoop=1;jettySize=auto;html=1;exitX=0;exitY=0.5;exitDx=0;exitDy=0;entryX=0;entryY=0.5;entryDx=0;entryDy=0;" parent="1" source="SEtMhd0zfTzj_LaCbf4u-7" target="SEtMhd0zfTzj_LaCbf4u-41" edge="1">
          <mxGeometry relative="1" as="geometry" />
        </mxCell>
        <mxCell id="SEtMhd0zfTzj_LaCbf4u-61" style="edgeStyle=orthogonalEdgeStyle;rounded=0;orthogonalLoop=1;jettySize=auto;html=1;exitX=0;exitY=0.5;exitDx=0;exitDy=0;entryX=0;entryY=0.5;entryDx=0;entryDy=0;" parent="1" source="SEtMhd0zfTzj_LaCbf4u-7" target="SEtMhd0zfTzj_LaCbf4u-42" edge="1">
          <mxGeometry relative="1" as="geometry" />
        </mxCell>
        <mxCell id="SEtMhd0zfTzj_LaCbf4u-62" style="edgeStyle=orthogonalEdgeStyle;rounded=0;orthogonalLoop=1;jettySize=auto;html=1;exitX=0;exitY=0.5;exitDx=0;exitDy=0;entryX=0;entryY=0.5;entryDx=0;entryDy=0;" parent="1" source="SEtMhd0zfTzj_LaCbf4u-7" target="SEtMhd0zfTzj_LaCbf4u-43" edge="1">
          <mxGeometry relative="1" as="geometry" />
        </mxCell>
        <mxCell id="SEtMhd0zfTzj_LaCbf4u-7" value="Documentation and Presentation" style="rounded=0;whiteSpace=wrap;html=1;fillColor=#FFFFCC;" parent="1" vertex="1">
          <mxGeometry x="210" y="625" width="120" height="40" as="geometry" />
        </mxCell>
        <mxCell id="SEtMhd0zfTzj_LaCbf4u-9" value="Requirements Analysis" style="rounded=0;whiteSpace=wrap;html=1;fillColor=#CCE5FF;" parent="1" vertex="1">
          <mxGeometry x="40" y="370" width="120" height="40" as="geometry" />
        </mxCell>
        <mxCell id="SEtMhd0zfTzj_LaCbf4u-10" value="Technology Research" style="rounded=0;whiteSpace=wrap;html=1;fillColor=#CCE5FF;" parent="1" vertex="1">
          <mxGeometry x="40" y="430" width="120" height="40" as="geometry" />
        </mxCell>
        <mxCell id="SEtMhd0zfTzj_LaCbf4u-11" value="Schedule Planning and Task Assignment" style="rounded=0;whiteSpace=wrap;html=1;fillColor=#CCE5FF;" parent="1" vertex="1">
          <mxGeometry x="40" y="490" width="120" height="40" as="geometry" />
        </mxCell>
        <mxCell id="SEtMhd0zfTzj_LaCbf4u-12" value="Navigation Function" style="rounded=0;whiteSpace=wrap;html=1;fillColor=#CCE5FF;" parent="1" vertex="1">
          <mxGeometry x="420" y="370" width="120" height="40" as="geometry" />
        </mxCell>
        <mxCell id="SEtMhd0zfTzj_LaCbf4u-13" value="Tmap API integration and start guidance flow" style="rounded=0;whiteSpace=wrap;html=1;fillColor=#E6FFCC;" parent="1" vertex="1">
          <mxGeometry x="450" y="430" width="120" height="40" as="geometry" />
        </mxCell>
        <mxCell id="SEtMhd0zfTzj_LaCbf4u-14" value="Voice-based destination recognition and route search" style="rounded=0;whiteSpace=wrap;html=1;fillColor=#E6FFCC;" parent="1" vertex="1">
          <mxGeometry x="450" y="480" width="120" height="60" as="geometry" />
        </mxCell>
        <mxCell id="SEtMhd0zfTzj_LaCbf4u-15" value="Public transport (bus/subway) location information delivery" style="rounded=0;whiteSpace=wrap;html=1;fillColor=#E6FFCC;" parent="1" vertex="1">
          <mxGeometry x="450" y="560" width="120" height="50" as="geometry" />
        </mxCell>
        <mxCell id="SEtMhd0zfTzj_LaCbf4u-16" value="Health Status Detection" style="rounded=0;whiteSpace=wrap;html=1;fillColor=#CCE5FF;" parent="1" vertex="1">
          <mxGeometry x="420" y="625" width="120" height="40" as="geometry" />
        </mxCell>
        <mxCell id="SEtMhd0zfTzj_LaCbf4u-17" value="Real-time health data collection and anomaly detection" style="rounded=0;whiteSpace=wrap;html=1;fillColor=#E6FFCC;" parent="1" vertex="1">
          <mxGeometry x="450" y="680" width="120" height="40" as="geometry" />
        </mxCell>
        <mxCell id="SEtMhd0zfTzj_LaCbf4u-18" value="Trigger SOS on fall, collision, or heart rate abnormality" style="rounded=0;whiteSpace=wrap;html=1;fillColor=#E6FFCC;" parent="1" vertex="1">
          <mxGeometry x="450" y="730" width="120" height="40" as="geometry" />
        </mxCell>
        <mxCell id="SEtMhd0zfTzj_LaCbf4u-19" value="Alert when no location change is detected" style="rounded=0;whiteSpace=wrap;html=1;fillColor=#E6FFCC;" parent="1" vertex="1">
          <mxGeometry x="450" y="780" width="120" height="40" as="geometry" />
        </mxCell>
        <mxCell id="SEtMhd0zfTzj_LaCbf4u-20" value="AI-Based Analysis" style="rounded=0;whiteSpace=wrap;html=1;fillColor=#CCE5FF;" parent="1" vertex="1">
          <mxGeometry x="624" y="370" width="120" height="40" as="geometry" />
        </mxCell>
        <mxCell id="SEtMhd0zfTzj_LaCbf4u-21" value="Connect to AI server and detect anomalies via health data" style="rounded=0;whiteSpace=wrap;html=1;fillColor=#E6FFCC;" parent="1" vertex="1">
          <mxGeometry x="654" y="430" width="120" height="40" as="geometry" />
        </mxCell>
        <mxCell id="SEtMhd0zfTzj_LaCbf4u-22" value="Recommend nearby rest places on fatigue detection" style="rounded=0;whiteSpace=wrap;html=1;fillColor=#E6FFCC;" parent="1" vertex="1">
          <mxGeometry x="654" y="480" width="120" height="40" as="geometry" />
        </mxCell>
        <mxCell id="SEtMhd0zfTzj_LaCbf4u-24" value="User Interface" style="rounded=0;whiteSpace=wrap;html=1;fillColor=#CCE5FF;" parent="1" vertex="1">
          <mxGeometry x="624" y="535" width="120" height="40" as="geometry" />
        </mxCell>
        <mxCell id="SEtMhd0zfTzj_LaCbf4u-25" value="Voice guidance and user response handling" style="rounded=0;whiteSpace=wrap;html=1;fillColor=#E6FFCC;" parent="1" vertex="1">
          <mxGeometry x="654" y="590" width="120" height="40" as="geometry" />
        </mxCell>
        <mxCell id="SEtMhd0zfTzj_LaCbf4u-26" value="UI for checking user&#39;s physical condition" style="rounded=0;whiteSpace=wrap;html=1;fillColor=#E6FFCC;" parent="1" vertex="1">
          <mxGeometry x="654" y="640" width="120" height="40" as="geometry" />
        </mxCell>
        <mxCell id="SEtMhd0zfTzj_LaCbf4u-27" value="Auto login and user identification via UUID" style="rounded=0;whiteSpace=wrap;html=1;fillColor=#E6FFCC;" parent="1" vertex="1">
          <mxGeometry x="654" y="690" width="120" height="40" as="geometry" />
        </mxCell>
        <mxCell id="SEtMhd0zfTzj_LaCbf4u-28" value="Health Report and Advice" style="rounded=0;whiteSpace=wrap;html=1;fillColor=#CCE5FF;" parent="1" vertex="1">
          <mxGeometry x="624" y="750" width="120" height="40" as="geometry" />
        </mxCell>
        <mxCell id="SEtMhd0zfTzj_LaCbf4u-29" value="Daily health data processing and report generation" style="rounded=0;whiteSpace=wrap;html=1;fillColor=#E6FFCC;" parent="1" vertex="1">
          <mxGeometry x="654" y="805" width="120" height="45" as="geometry" />
        </mxCell>
        <mxCell id="SEtMhd0zfTzj_LaCbf4u-30" value="Personalized voice feedback on health status" style="rounded=0;whiteSpace=wrap;html=1;fillColor=#E6FFCC;" parent="1" vertex="1">
          <mxGeometry x="654" y="880" width="120" height="50" as="geometry" />
        </mxCell>
        <mxCell id="SEtMhd0zfTzj_LaCbf4u-35" value="System Architecture Design" style="rounded=0;whiteSpace=wrap;html=1;fillColor=#CCE5FF;" parent="1" vertex="1">
          <mxGeometry x="230" y="370" width="120" height="40" as="geometry" />
        </mxCell>
        <mxCell id="SEtMhd0zfTzj_LaCbf4u-36" value="UI/UX Design (Voice-based Interface)" style="rounded=0;whiteSpace=wrap;html=1;fillColor=#CCE5FF;" parent="1" vertex="1">
          <mxGeometry x="230" y="430" width="120" height="40" as="geometry" />
        </mxCell>
        <mxCell id="SEtMhd0zfTzj_LaCbf4u-37" value="Data Flow and Sensor Integration Design" style="rounded=0;whiteSpace=wrap;html=1;fillColor=#CCE5FF;" parent="1" vertex="1">
          <mxGeometry x="230" y="490" width="120" height="50" as="geometry" />
        </mxCell>
        <mxCell id="SEtMhd0zfTzj_LaCbf4u-38" value="Unit Testing per Feature" style="rounded=0;whiteSpace=wrap;html=1;fillColor=#CCE5FF;" parent="1" vertex="1">
          <mxGeometry x="40" y="695" width="120" height="40" as="geometry" />
        </mxCell>
        <mxCell id="SEtMhd0zfTzj_LaCbf4u-39" value="Integration Testing" style="rounded=0;whiteSpace=wrap;html=1;fillColor=#CCE5FF;" parent="1" vertex="1">
          <mxGeometry x="40" y="755" width="120" height="40" as="geometry" />
        </mxCell>
        <mxCell id="SEtMhd0zfTzj_LaCbf4u-40" value="Evaluation of Accuracy, Reliability, and Usability" style="rounded=0;whiteSpace=wrap;html=1;fillColor=#CCE5FF;" parent="1" vertex="1">
          <mxGeometry x="40" y="815" width="120" height="45" as="geometry" />
        </mxCell>
        <mxCell id="SEtMhd0zfTzj_LaCbf4u-41" value="Final Report Writing" style="rounded=0;whiteSpace=wrap;html=1;fillColor=#CCE5FF;" parent="1" vertex="1">
          <mxGeometry x="230" y="695" width="120" height="40" as="geometry" />
        </mxCell>
        <mxCell id="SEtMhd0zfTzj_LaCbf4u-42" value="Presentation Material Preparation" style="rounded=0;whiteSpace=wrap;html=1;fillColor=#CCE5FF;" parent="1" vertex="1">
          <mxGeometry x="230" y="755" width="120" height="40" as="geometry" />
        </mxCell>
        <mxCell id="SEtMhd0zfTzj_LaCbf4u-43" value="Demo Video or Live Demonstration" style="rounded=0;whiteSpace=wrap;html=1;fillColor=#CCE5FF;" parent="1" vertex="1">
          <mxGeometry x="230" y="815" width="120" height="40" as="geometry" />
        </mxCell>
        <mxCell id="SEtMhd0zfTzj_LaCbf4u-52" value="" style="endArrow=none;html=1;rounded=0;entryX=0;entryY=0.5;entryDx=0;entryDy=0;exitX=0;exitY=0.5;exitDx=0;exitDy=0;" parent="1" source="SEtMhd0zfTzj_LaCbf4u-6" target="SEtMhd0zfTzj_LaCbf4u-3" edge="1">
          <mxGeometry width="50" height="50" relative="1" as="geometry">
            <mxPoint x="300" y="510" as="sourcePoint" />
            <mxPoint x="350" y="460" as="targetPoint" />
            <Array as="points">
              <mxPoint y="645" />
              <mxPoint y="320" />
            </Array>
          </mxGeometry>
        </mxCell>
        <mxCell id="SEtMhd0zfTzj_LaCbf4u-53" value="" style="endArrow=none;html=1;rounded=0;entryX=0;entryY=0.5;entryDx=0;entryDy=0;exitX=0;exitY=0.5;exitDx=0;exitDy=0;" parent="1" edge="1">
          <mxGeometry width="50" height="50" relative="1" as="geometry">
            <mxPoint x="210" y="646" as="sourcePoint" />
            <mxPoint x="210" y="321" as="targetPoint" />
            <Array as="points">
              <mxPoint x="190" y="646" />
              <mxPoint x="190" y="321" />
            </Array>
          </mxGeometry>
        </mxCell>
        <mxCell id="SEtMhd0zfTzj_LaCbf4u-73" value="" style="endArrow=none;html=1;rounded=0;entryX=0;entryY=0.5;entryDx=0;entryDy=0;" parent="1" target="SEtMhd0zfTzj_LaCbf4u-13" edge="1">
          <mxGeometry width="50" height="50" relative="1" as="geometry">
            <mxPoint x="400" y="390" as="sourcePoint" />
            <mxPoint x="410" y="560" as="targetPoint" />
            <Array as="points">
              <mxPoint x="400" y="450" />
            </Array>
          </mxGeometry>
        </mxCell>
        <mxCell id="SEtMhd0zfTzj_LaCbf4u-74" value="" style="endArrow=none;html=1;rounded=0;entryX=0;entryY=0.5;entryDx=0;entryDy=0;" parent="1" edge="1" target="SEtMhd0zfTzj_LaCbf4u-14">
          <mxGeometry width="50" height="50" relative="1" as="geometry">
            <mxPoint x="400" y="440" as="sourcePoint" />
            <mxPoint x="450" y="500" as="targetPoint" />
            <Array as="points">
              <mxPoint x="400" y="510" />
            </Array>
          </mxGeometry>
        </mxCell>
        <mxCell id="SEtMhd0zfTzj_LaCbf4u-75" value="" style="endArrow=none;html=1;rounded=0;entryX=0;entryY=0.5;entryDx=0;entryDy=0;" parent="1" edge="1" target="SEtMhd0zfTzj_LaCbf4u-15">
          <mxGeometry width="50" height="50" relative="1" as="geometry">
            <mxPoint x="400" y="490" as="sourcePoint" />
            <mxPoint x="450" y="550" as="targetPoint" />
            <Array as="points">
              <mxPoint x="400" y="585" />
            </Array>
          </mxGeometry>
        </mxCell>
        <mxCell id="SEtMhd0zfTzj_LaCbf4u-79" value="" style="endArrow=none;html=1;rounded=0;entryX=0;entryY=0.5;entryDx=0;entryDy=0;" parent="1" target="SEtMhd0zfTzj_LaCbf4u-21" edge="1">
          <mxGeometry width="50" height="50" relative="1" as="geometry">
            <mxPoint x="610" y="390" as="sourcePoint" />
            <mxPoint x="660" y="450" as="targetPoint" />
            <Array as="points">
              <mxPoint x="610" y="450" />
            </Array>
          </mxGeometry>
        </mxCell>
        <mxCell id="SEtMhd0zfTzj_LaCbf4u-80" value="" style="endArrow=none;html=1;rounded=0;entryX=0;entryY=0.5;entryDx=0;entryDy=0;" parent="1" target="SEtMhd0zfTzj_LaCbf4u-22" edge="1">
          <mxGeometry width="50" height="50" relative="1" as="geometry">
            <mxPoint x="610" y="440" as="sourcePoint" />
            <mxPoint x="650" y="500" as="targetPoint" />
            <Array as="points">
              <mxPoint x="610" y="500" />
            </Array>
          </mxGeometry>
        </mxCell>
        <mxCell id="SEtMhd0zfTzj_LaCbf4u-81" value="" style="endArrow=none;html=1;rounded=0;entryX=0;entryY=0.5;entryDx=0;entryDy=0;" parent="1" target="SEtMhd0zfTzj_LaCbf4u-29" edge="1">
          <mxGeometry width="50" height="50" relative="1" as="geometry">
            <mxPoint x="610" y="770" as="sourcePoint" />
            <mxPoint x="654" y="830" as="targetPoint" />
            <Array as="points">
              <mxPoint x="610" y="828" />
            </Array>
          </mxGeometry>
        </mxCell>
        <mxCell id="SEtMhd0zfTzj_LaCbf4u-82" value="" style="endArrow=none;html=1;rounded=0;entryX=0;entryY=0.5;entryDx=0;entryDy=0;" parent="1" edge="1">
          <mxGeometry width="50" height="50" relative="1" as="geometry">
            <mxPoint x="610" y="827" as="sourcePoint" />
            <mxPoint x="654" y="907" as="targetPoint" />
            <Array as="points">
              <mxPoint x="610" y="907" />
            </Array>
          </mxGeometry>
        </mxCell>
        <mxCell id="SEtMhd0zfTzj_LaCbf4u-87" value="" style="endArrow=none;html=1;rounded=0;entryX=0;entryY=0.5;entryDx=0;entryDy=0;" parent="1" target="SEtMhd0zfTzj_LaCbf4u-17" edge="1">
          <mxGeometry width="50" height="50" relative="1" as="geometry">
            <mxPoint x="400" y="645" as="sourcePoint" />
            <mxPoint x="450" y="705" as="targetPoint" />
            <Array as="points">
              <mxPoint x="400" y="700" />
            </Array>
          </mxGeometry>
        </mxCell>
        <mxCell id="SEtMhd0zfTzj_LaCbf4u-88" value="" style="endArrow=none;html=1;rounded=0;entryX=0;entryY=0.5;entryDx=0;entryDy=0;" parent="1" edge="1">
          <mxGeometry width="50" height="50" relative="1" as="geometry">
            <mxPoint x="400" y="690" as="sourcePoint" />
            <mxPoint x="450" y="750" as="targetPoint" />
            <Array as="points">
              <mxPoint x="400" y="750" />
            </Array>
          </mxGeometry>
        </mxCell>
        <mxCell id="SEtMhd0zfTzj_LaCbf4u-89" value="" style="endArrow=none;html=1;rounded=0;entryX=0;entryY=0.5;entryDx=0;entryDy=0;" parent="1" edge="1">
          <mxGeometry width="50" height="50" relative="1" as="geometry">
            <mxPoint x="400" y="740" as="sourcePoint" />
            <mxPoint x="450" y="800" as="targetPoint" />
            <Array as="points">
              <mxPoint x="400" y="800" />
            </Array>
          </mxGeometry>
        </mxCell>
        <mxCell id="SEtMhd0zfTzj_LaCbf4u-90" value="" style="endArrow=none;html=1;rounded=0;entryX=0;entryY=0.5;entryDx=0;entryDy=0;" parent="1" target="SEtMhd0zfTzj_LaCbf4u-25" edge="1">
          <mxGeometry width="50" height="50" relative="1" as="geometry">
            <mxPoint x="609" y="555" as="sourcePoint" />
            <mxPoint x="659" y="610" as="targetPoint" />
            <Array as="points">
              <mxPoint x="609" y="610" />
            </Array>
          </mxGeometry>
        </mxCell>
        <mxCell id="SEtMhd0zfTzj_LaCbf4u-91" value="" style="endArrow=none;html=1;rounded=0;entryX=0;entryY=0.5;entryDx=0;entryDy=0;" parent="1" target="SEtMhd0zfTzj_LaCbf4u-26" edge="1">
          <mxGeometry width="50" height="50" relative="1" as="geometry">
            <mxPoint x="609" y="600" as="sourcePoint" />
            <mxPoint x="650" y="660" as="targetPoint" />
            <Array as="points">
              <mxPoint x="609" y="660" />
            </Array>
          </mxGeometry>
        </mxCell>
        <mxCell id="SEtMhd0zfTzj_LaCbf4u-92" value="" style="endArrow=none;html=1;rounded=0;entryX=0;entryY=0.5;entryDx=0;entryDy=0;" parent="1" target="SEtMhd0zfTzj_LaCbf4u-27" edge="1">
          <mxGeometry width="50" height="50" relative="1" as="geometry">
            <mxPoint x="609" y="650" as="sourcePoint" />
            <mxPoint x="640" y="710" as="targetPoint" />
            <Array as="points">
              <mxPoint x="609" y="710" />
            </Array>
          </mxGeometry>
        </mxCell>
      </root>
    </mxGraphModel>
  </diagram>
</mxfile>
